<mxfile host="65bd71144e">
    <diagram id="ZivvYVFCVXp8ms-d44PO" name="Page-1">
        <mxGraphModel dx="798" dy="484" grid="1" gridSize="10" guides="1" tooltips="1" connect="1" arrows="1" fold="1" page="1" pageScale="1" pageWidth="827" pageHeight="1169" math="0" shadow="0">
            <root>
                <mxCell id="0"/>
                <mxCell id="1" parent="0"/>
                <mxCell id="2" value="obj 0x100" style="whiteSpace=wrap;html=1;" vertex="1" parent="1">
                    <mxGeometry x="350" y="130" width="120" height="60" as="geometry"/>
                </mxCell>
                <mxCell id="7" style="edgeStyle=none;html=1;exitX=0.25;exitY=0;exitDx=0;exitDy=0;entryX=0.75;entryY=1;entryDx=0;entryDy=0;" edge="1" parent="1" source="3" target="2">
                    <mxGeometry relative="1" as="geometry"/>
                </mxCell>
                <mxCell id="3" value="&lt;span&gt;info 0x200&lt;/span&gt;" style="whiteSpace=wrap;html=1;" vertex="1" parent="1">
                    <mxGeometry x="430" y="260" width="140" height="60" as="geometry"/>
                </mxCell>
                <mxCell id="6" style="edgeStyle=none;html=1;exitX=0.75;exitY=0;exitDx=0;exitDy=0;entryX=0.5;entryY=1;entryDx=0;entryDy=0;" edge="1" parent="1" source="4" target="2">
                    <mxGeometry relative="1" as="geometry"/>
                </mxCell>
                <mxCell id="4" value="&lt;span&gt;p 0x300&lt;/span&gt;" style="whiteSpace=wrap;html=1;" vertex="1" parent="1">
                    <mxGeometry x="280" y="260" width="120" height="60" as="geometry"/>
                </mxCell>
                <mxCell id="8" value="retain-count +3" style="text;html=1;align=center;verticalAlign=middle;resizable=0;points=[];autosize=1;strokeColor=none;" vertex="1" parent="1">
                    <mxGeometry x="330" y="100" width="100" height="20" as="geometry"/>
                </mxCell>
                <mxCell id="9" value="obj" style="whiteSpace=wrap;html=1;" vertex="1" parent="1">
                    <mxGeometry x="170" y="120" width="90" height="200" as="geometry"/>
                </mxCell>
                <mxCell id="10" value="stack" style="text;html=1;align=center;verticalAlign=middle;resizable=0;points=[];autosize=1;strokeColor=none;" vertex="1" parent="1">
                    <mxGeometry x="170" y="100" width="40" height="20" as="geometry"/>
                </mxCell>
                <mxCell id="12" value="当retain-count =0时，自动回收" style="text;html=1;align=center;verticalAlign=middle;resizable=0;points=[];autosize=1;strokeColor=none;" vertex="1" parent="1">
                    <mxGeometry x="190" y="70" width="180" height="20" as="geometry"/>
                </mxCell>
                <mxCell id="13" value="" style="shape=image;verticalLabelPosition=bottom;labelBackgroundColor=#ffffff;verticalAlign=top;aspect=fixed;imageAspect=0;image=data:image/png,iVBORw0KGgoAAAANSUhEUgAAARgAAAERCAYAAACggbhEAAAgAElEQVR4Ae2d34sUSbbH93/ph9oL2nduO+C2e8VuWFsbhLEcesGF7jstwtjY87IotDrjDOzTcNWH3YaaJwfu4sroQ+M8rA8KQgv+AUO/Cv4n53IyMzIjIiN/VpzMyMrvQ1NdWVGRkSe+8ckTJ7JO/G5pskz4gw2gAWhAQgO/k6gUdUKs0AA0wBoAYODBwYOFBsQ0AMBAXGLighcDLwaAAWAAGGhATAMAzEjENdu6S5+2LooJCd4KvBWXBvwCZmVKm9PrdOYUjO0y9tzHVq7Syf5d+rS/Q7OGYOwNMFce0dNf39HLwzuAW8M+m1svAZzPC2Amq9dpc3qDNi9fojNrAIysMM7R0W5zwMi2qfiGcvPwHT2+Vfx5X+3CebvpEy+A0TvrNAAjfKceGmBe0YMr3YhZ1yH+D8PmowDMd9sf6cNB9vd8fZmWPn9Bb7VjH26/oG12Ke3jBx/p7Rf7eWho5eLPn9BzVd/2k3z5mu7qweYefYqmQTwVuksnm+esujLARNMeVXb3Kh3o50inU3E9qs7j890K7+YhADNm2I0CMFEHMxAURLSByPBxAsQq86EAGttf/EZvt9/Q24PfaPZ5PHj5WAQxrY46InPFSfLHYsAcb1nwOb9Dn2zIWOdneLUFzGezY/rzv8v+/kWfWefjawZgugV6HZ11WWY8gJns0+z2R2vgs9fxhr5zDAyzE57QcwecuAzD5EOtOiqExh5HwSrPbGuPjlbU9xkwFlyS9jNA8h6P+t4yzQMY0x5ZneXHv6QHz+DBlNuori2HWW5EgElgoHkiERy097EQYhDpU6ro/xLAVHlAdQRWOvjP72jgyKZIuXpLIMVlS89RCdmGAk9Wj55+/6U1xWtYj+92ob5O+2NUgFma6B6Ly6OJj+WBUe7B5Ms3H0Slgz8AwLSbIsGDyd0ERga4kQFmmdKYy/obSgO7qtM5TpPzaBgW8oBZKvE+XFMkVyyFIRXWFAkxGABGDS5Pr8EvUyfB3pkzuKt7OIkXwiDi1SHhKRILkQO6OXBw8NaIzfAUaY9Odq2ywkHetgMFQd7m3mxbW4f4PS8eTPqgHT9sZ/yF+NCdirEUBHe15ecMLGoJOvtOHNzNlr6zmE1WpnmHxwFctaQcveorQ+nSMz9oZ5XVyxXcLEqnYQXfaX4N5oACYEx7zGvPoX3fC2CGdtFjbW8/gMGTvGPVG183ACN05w5PVBfpuMVvmOa+DvwWqdNVm7n7y/N4AGA8GzSYDk6nU+pJXv1ZmnG77cH00aJqT7suAEYzBoQH8EADfjUAwAAwo3bhARS/QLHtCcAAMAAMNCCmAQAG4hITl303w3tZbyFE+wIwAAwAAw2IaWAUgPnj2mX6/akzYkYM8c6BNo3PWwixzwEY3L0AXmhATAMADMQlJq4Q76hoU7eeHQADwAAw0ICYBgAYiEtMXPAWuvUWQrS3P8BEeyJlv6ZeTVM89m9kBHnr9cHq4Tf00/t79NOzDQs65+jr1/eiz+4/rFdXudhb1vfVNfqR2/d+l67ixmD1kY9+8V+HH8BEcJnS6bTTL9Dq9AaFAhkApqZwHu4WACb+PgPID2Da1rdB9wGYQYBF3WC8AMaZZOrUJVq/fIkmKXRqilygPABT0/aJh/Djob1VSlsglJ+3ObASz+f1NVoV0IkaFHgt77cm9vECGOcJFxkwnD2O9yOKkjxxGgT1i2Ury1w0CMzPo+/pGeq0uo54/2iuiz/Xfg2dy3I3ydeZL6NEwnlx39HLOtu3JoAp8lIUEK4+i6dL0XTKHuzKC9KnWq5jk2WqVZ8BkgQwuSmcula8OseiYcNubSQGmNNriz5FukjHnLpyX0uDEEGheltXTvxk7mGUACMBT7yhWlJvrk4uq50zEk+c3c6dj7cBYCY8BfmGvv7KLUIGAkNF93AYNvr7SOARqMw4iatc7fq0AeKqJ7RBhfZk+hEBDKfQXF89G8xcUWaK5BrodbcGYSDoIGJYZTszmsm7zbJlWelmW3qdWSf7EjwDIQcThpLtxTAQNMgUQaFRfRpkfF0P6vGvEdum3gET5edduxAMXPiCxQCjQUEZ1gWA2CPJplHRNMjILlcfMO66VN22Z+NXQAyE/PSpADApZBweTgKLxvUBMkGNK6X5slevgOFp0WZgcOkbMBEQ9JhLNEhMr2SJYyoarMo8GK6vON7iFyi2cJoCIfJcXvO0ypwuqXqb1qe+h1fZfvZpX2+AYbiENC3SjdSfB2OCI2tTe8As5bYx6U5sTYBgTIs4yOuYRjWpL7Ndd9eLc85vaw+AOUtnLrvgcoFWF3qZ2g0Pc4rEILGmLenqkB4vMesq82BY9OzFnGzaS8numNDSpEmQt1xQdYFgwEVNaxyQqVsfBnp5v4RsHw+AiR+qM/dDSp7oXVTAqKXlaHlaAYRhomIhOgCSFaJ0KZvBosru0dGfkiVvrS4GTLpcrZfVno7Ox2JUO2wx+gBM9uSt8aSvvvycTIMYLlGZomXqqFz9+kIePGibrbX8ew+AyVcamuFlpkjhX3do/YD2jE8zAIxy4fE6uBUKACt8YAEwAAvAAg2IaQCAgbjExAUPI3wPQ7qPABgABoCBBsQ0AMBAXGLikr47ov7wPSQABoABYKABMQ0AMBCXmLjgYYTvYUj30SgAI21E1I+BBA24NQDAwIOBBwMNiGkAgIG4xMSFu7r7rj4muwAwAAwAAw2IaQCAgbjExDWmOzWu1e2t+QMMJ/meZvsihZkb5g49rpP8GtABdKABLxrwApgoTeZU3xcpzhETyr5I9t3l5uErenDFTVy7LN7DTtBAew14AYyzAwLatsRu383Dd/T4Vnuj2fXhPWwJDbg1AMDAFfbiCmOAuQfY2O0iBJjQp0jwYMYufFx/N0D0Cxgt0BtmkDc26sb3rzBFgucGz60DDfgFTNrgokTg3VCz+u6U5Kk9vAORpX0WSt+gHdX6HY6NhADDBmDI6CtL4RgFHkw4fbFIgwnXkteVMGCu05lT+ZP23RFYRQqvT/rWBM4vowkPgHFPh0Ld5ZGFBMDIiAmDFHa1NeABMLFRI6BoT/KGuIWsungABgNBaQGvslrwBpjhdBQHePEk73D6S3YAwA6y9h0ZYPBbJAwo2QEF+5r2HRlgzIuHGGAPaEBWAwAMngPBs0DQgJgGABiIS0xc8A5kvYMh2BeAAWAAGGhATAMADMQlJq4h3GHRRlkvC4ABYAAYaEBMAwAMxCUmLngHst7BEOwLwAAwAAw0IKYBAAbiEhPXEO6waKOslwXAADAADDQgpgEAJkRxnd+hT/s7NAuxbWiT2GBcRG/KP2CStJkhp8wMviO9A+YcHe3epU/72t/WxcAGSpJl8NendBMQC6xv2k+jvAOG0zasX75OAEz7TvENwNnWXTrZPBe2aG89pZdIYRp2H7UAv1/ARN7LlE6vTAGYFp3hGyyqvtnWHh2thAM81S7j9dZTevr9lws3wIxrDEgTXbXLI2C0rUoCA8x32x/pw0H293x9mZY+f0FvtWMfbr+gbRaAffzgI739Yj8vfK1c/PkTeq7q236SL19DXAebe9o0xhWDuUjH0TQnBgZ7Jum0xzHlMT7Xp0eO+I557h48HgCmlWa6AkXb8/gDzMqUNi9fogkPpMAAExmHgaAgog12ho8TIFaZDwXQ2P7iN3q7/YbeHvxGs89jL4GPRRDT6mjWQQwSF2Di+tkjOdnVIRDHWI7Pu72UKg8mApEFKNexOtfw2eyY/vzvsr9/0WcuuwAwAEyxwC7Q6lRL8B0iYCb7NLv90Rr47HW8oe9cgjeOPaHnDjixPRgmH2rV4R78bptWAUaHS1LvylU6sSCh6i4FTNvvGfZpcm3usrzTA6ZIbtuofhziqxcPZrJ6nYwcvEECJoGB5olEcNDexx0Yg0ifUkX/lwCmygNqLowqwDhiKi1BwVOjIs9n6fxOB8HhZPXo2SPa8Ayt5nZfvAHetw28ACaX8Fsl/167EJjbp3ssLo8mPpYHRrkHky8/r1CHC5i2UyR4MPNqJszvewFMjpKBejDczjTmsv6G0sCuunNynCbn0XDHLS5gllp6Prk+VzZs+4oYTGA3Yz/AGh1golWi2y9o5gzu6h5OYmAGEa8OLegUiUHBAd3cNIkf9iuI6XiHC0MJgAFgKoWVPMW7GewUiaGhYiwFwV1t+TkDi1qCzr4TB3ezpe8sZpOVqbSXfrdnT8JYStaWoPdVzIWnTtlx9fCcscS8e5UOonodT++q76Zl1F3KUTZXRpUVegVgAJhGA0YfPPh/IcXjVQ94knchNSIzRQJQFlIsXoGS0wh+iyRrXyHPM9eP5nkAmAoDLWKn45rMQQB7yNkDgAFg4G1BA2IaAGAgLjFxwTOQ8wyGYlsABoABYKABMQ0AMBCXmLiGcpdFO+U8LQAGgAFgoAExDYwCMH9cu0y/P3VGzIi4A8rdAWHbYdsWgMHdC+CFBsQ0AMBAXGLigvcxbO/DR/8BMAAMAAMNiGkAgIG4xMTl4w6IOobtBXkCDKfMvEHpr6iT/0PZugRB3noiXT38hn56f49+erbRKXT6Oi/gVU8X89jJH2BUwu8APQIApqaQHu72Apilvs4boFbnGcwhfheAgcgyb+Wra/Tj+3v042HHm7T1dV70fdb3QrYAYNoYNtra9S59ipIymUmgcpnhJubn0T5GeqY4ra4jtc8Rf64loKpTZ76M8lpUGoR31TsnJgP9/kP1XetVeRo8jTL+dumqbUer7P2H5+jr145y/L2q89p14704GHx5Q/4AY8dgApoyyUyRLtLx7h6dpNnmeD8ozkpXvJ+R6rQoA52RMS6BUAKeeMO0JItdrk4uqzLcKQDEGelUhjt1nvi1AWAmG3T//Tf09VeqXuv14W7Ou7n6zOHxMFxeX6PVFAQMF4ZSAWCqzpvWY7UHx4MHjSfAODpe34itZyGIASY30JepdBuQ1A4MBB1EDCuV6jKuI4OFWbas/tmWXqejT9Lz+/ksCs66AsIMGNdxz+c3QernmlCnXzvKAWayTKfXtM3YehSXGGA0KChhugAQeyRZLt14u1cdBvUB465L1W17Nn7Foq6RXwvhkvRzujKkplIATvDeht6/vv4HYFqDz4SC6hAbMBEQ9JhLdD7TK1niOI0GK66jyIPh+orjLXJAUdcXveamQNXnjYBjTJuqv2Ocs3U/4Tx92lEQMGfpzOUpnQ5AGP15MCY4so5uDxjebbHT7UTs/osCskWxlLLBzHGYkviOfR7He96c7eWvNYLVju9mti9rIz7zbScPgGGQ3CD7obpot8dAdnbsDzAMEmvakq4OtZsisQDYi8k8HDUoXMFf/qxJkFfVVfDqhIsNjjigm1uJ4u/O5cGo63hFD64UtA9gCW4a5gEwcWfb28fawPFNxib1eQeMWlqO9hlSAGGYqFiIDgB7mZrBosru0dGfdiiOyfB347p4ipQtZ2tlV7KBlY/FqHZkZWIbqYE5/50/F1dR8RVj5UmtGNVYym4EhDv0GN5LcACpGofeAFN1oj4/9w6YRgPDHvB430oLvG/Sr/BeWtmuR70CMD0af2hi6bO9Nw/n98D6bP9Yzw3AADCDc7vHOliHeN0ADAADwEADYhoAYCAuMXEN8Y6LNvuNEQIwAAwAAw2IaQCAgbjExAVvwK83MER7AjAADAADDYhpAICBuMTENcQ7Ltrs1+sCYAAYAAYaENMAAANxiYkL3oBfb2CI9gRgABgABhoQ0wAAE6C43DlkcDeM7uDRr9GLftgJG4Xm5fgHzKlLtK7l513VfgHc18WL/9gxTcGQ/Zp6nqRQvQMmvR49pYTfwat+DZ5PO1FxHgBGzNuQGJ9eAROnbAgjyZRuLFnAFOVhqRgoAXpOus2iLHs1Epib32l4zed3HHltGtYRvB3HfT3+ALMyzSWdmkt8HoUjDhgt3WUo1zx/Oxicch5M1D4AZlDeSBtNeQLMWTqzdokmHqHQ5mKKviMDGDuRVDY9MlJaptMNlYRK+56Rq1cllkrqMT6z74JaHVHSKztPr/o8jlWo6UiWxMquzzp3BEyuww2YKHUCJ3969og2ivrcSMp1153mUwFGsxG30Z5eGu1Prjfek8q+DrwvGgN9HfcDGI67cHpMI/4SzlRJBjBKzEV5d9Xn8WuUyHtrx9hHyU4QnoqgNO8uD3w7yBkDwo5nzLb26GRXgY3bEZczB7DjWAqHdoCJMvJZXp3rGOcXPolsop/H0Z4cxOrZPLVn7vtm36CcnD08AmZKq1Ntm5IINmFAJhTAfCrwCHICLwFMIZSiXL36QC3I3cveguYdFdYXeRVmfbl2Ogdu8eDPnSsCmescxd5T3Ibic9Rro9yAwvlN2/oBDG+yNr1BuRWjU5fozMKvItUTOw8u28MoFGMJYJzTBTVtsDwb9mCObPtbgHGWicBRNchNIaXXoqY9LvhY5448mE33PtjF7eLz1rN52iZXW3Csk/iPH8AUeSuBBH5D8WB8Acac4hQM9MijAWAAmWJ9dGEbP4CZxFuX5DyYlWneq+nhzrFIgGmyL5LTC7C8iNy0RfVPV1MkK1YTi77Ke4IH0wUcfJzDE2CWkwCvFnMp8mqUgDt8XSjANNgXqQ5g4sCv5elEcOHVLFd8ZJmqVpGc00Gu04YJT6d298hcEUKQ18fADqUOf4BhYCSxGI7HbOoB3w5h4jKsCGDSQagtTyexEH0qxIMt2/dIL2sO3uJyd60BGLu8+ViMDgn2ALJzqfYY5zAGu1k+Bos6ptcbn7sKMNwH+faZ16s+j9qWrlrFba6eAsKDcek8xGN+AdMzSIoMLAKYQK+1yAaLdRyAGUp/AjAARSerCT4HhHMKhn4Msh8BGAgzSGHqQFLTqXSqqT3Ho5fD//2uGLnsD8AAMMEDxiVcHAsPJq4+AWAAGAAGGhDTAAADcYmJy3VHw7FheB6++gmAAWAAGGhATAMADMQlJi5fd0HUM1yvZxSAgUCHK1D03bD7DoCBBwMPBhoQ0wAAA3GJiQvex7C9Dx/9B8AAMAAMNCCmAQAG4hITl487IOoYthfkATBxLpj4F9T8K2rtj/P0BjWA79BjTlZ9eCewdg1bRGH1MWwZUn94AoyWB0YBhfPBBAeYWHw3D1/RgysQYkhCRFsWU48eAOM2zGT1ehDZ7FzC5Xwmj2+52+0qj2OwFTTQTgNCgOFpk8OrUd5Nz68ATDuxYJDBbk01IAOYgKdHbCAABgOl6UBB+XaaEQEMT4/WV88GG0jd+P4Vpkg9e5EYsO0G7NDsJgAYnh5pG7AFKeQv6cEzrCYNTaxo7/CgJACYC7R6Odx9qlmk8GCGJ1TAZZh95h8wgWy2ViZIxGCGKdayPsVnYfapd8CcXgt9eoQgLwZjmINxEfvFM2DCnx5xJ8KDwQBbxMEc4jV5BswQhMsBXjzJG6IY0aYhjJ9mbRwZYPBbJAziZgME9prPXiMDzHzGgthgP2igmQYAmCCf02nWiRA97BWqBgAYACbYJ65DHTRoV32gAzAADAADDYhpAICBuMTEhTt9/Tv9otoKgAFgABhoQEwDAMzIxTX9y22q+lvUuyuuS97DAmAAGABm5BqQBC0AM3JxVXkv/LmkAFG3vBfRp40BGAAGHszINSAJIABm5OKCB7PYHoQkPOrU7Q8wnIdX2xNpdQUdV6cD+i6TA8xf/4/+yXtH/fyP1LPpu404/3DHkifAXKDVqb6LwBDSZg6303wOOBsw3/78jmZ/M1eWfJ4PdY1Ld14A49wDKfCdBSD0WOh5wLymR38FYKAPPyAcBWC+2/5IHw6yv+fry7T0+Qt6qx37cPsFbXM8xj5+8JHefrGfX0nRysWfP6Hnqr7tJ/nyZbGelat0sn+XPu3v0Gxyjo52+f/kb/cqHZR9d87PABg/AwlActvRC2CWJvlMdpPVKZ055T5pL53BQFAQ0QYlw8cJEKvMhwJobH/xG73dfkNvD36j2efx9fKxCGJaHdXXzGDZo5Pdu3R8XrPb+R361BgyN+gPvxzTn/9d8vfLjP5jspzGWRRovv0ZHkx1X2n906iPx/c9T4BZpqWVaeAb3+/T7PZHa+Cz1/GGvqsUyRN67oATC5Fh8qFWHVXiij0XAy6qXed36GTzXDOvSH234lWBJX79gR79AsAAMFVarf+5H8BwvMXaqsQZl6kQu3THRjDQPBH7fXz+GET6lCr6vwQwVR5QvetiwPAUydF5PIXauigLmGT16J9//yHn1dRrv6PdrmvBMZF+DLWPvADGCZMgg7y6x+LyaOJjeWCUezD58m0Gm0/AtJ0iwYMJdaAOtV2eAOOKt1yg1bULwdE6jbmsv6E0sKvuqhyn0TycrFO7AowVf1Ht6myKdJsQg2lzc8B3srFi2sILYJYc3orTq1EDps/XJNg7cwZ3dQ8nMRSDiFeHOpkiOYK8k4t03DjIa3ZyUefzcTMGA8CU2Qqf1deVspUfwEyWiYGyqT3Juxmg9xJftIqxFAR3teXnDCxqCTr7ThzczZa+s5hNVkYZud6rmiLFwd50mXp/j44En4oGYJoPmnr9iXrZTt4AA6PPKygFmHnrafb9PGDwJC+03ExDZfYCYPqcrhnnDgMwU/wWKbi4YdkADv0zAMYY5P7I3ajj0yd51RO8stMivW22B+N6r5fH/z1pJASdtmgDANPCaIs0yFxAsY8t0vXiWroFJAADwORWkgCYbgfhIkMPgAFgAJiRa0AScADMyMVleyuu95ICRN2L7S0BMAAMPJiRa0AS8qMAzPb/3KT/XFnF8iMGEjTQsQYAmI4NLnm3QN2LPd0YYv8CMAAM7urQgJgGABiIS0xcQ7zjos1+vUAABoABYKABMQ14BAxvXXIj/UX1+upZsUY3vcsgyFvvrrR6+A399P4e/fRsw913D3fjz7nM+2/o66/q1VvVX5XnBQDc/TEAu3gCDO+DdIN0qJxeu0GhbL4GwNQEgQJIEWBSQZ+jr1/7A8xS7fPWvI60nShfBXfpz/0AxpFwamlyls6sXaJJAJ0NwNQcaF9dox/f36MfD6sSjHsGTO3z1ryOADQnPXCHUr8fwKxMDe9FXfzptetBbF3iHTC8lQjvWxRlmrtIx2oPo31Xykvz8+h7egJvra6jreTX1Py59gvr/E4D+TrzZdRg/JIePHtHL3k72MM75a52MtDvP1TfLXqtARjllUTTqXt0/yF/Z5euugZ/7fMWtQfH1ZgL7dUPYJwezDKFMk3yDphokHAqyz060TPORVAo2BlAG1gHm3vWXkcJMBLwzCLQJCkbcnVyWTudQ5wFz721SQPATDbofq3YSgVgGC6vr9Fqes1cnuM2BYCpfV6AJDSAVLXHD2B4OmTEYLKAbwhxGDHA5Ab6MjE8ir0JNUDs5FJm3l2uI4OFWbas/tlWNdyqBFHv8xqAqYzjKFvgtZ7Nh2knT4Dhi48ho/LyMlhCSfwtBhhHMm4XAGKPRCWTUq86DOoDxl2XqtP2bKREWQGYyTKlK0PJFKlwZSr1cqTainr7BJhHwOQ7cmFjMOkUKb9vtA2YCAh6zCX6rumVLFk7B5R5MFxftYeU7wu/IqsGjH2+CDjGtEm6jajf7oM+3ssBpiAu08dF9ufBmJ5Jdu3tAbPEQeEcsLoeTM0BszRp8x3zuja+f1UvWA2vqDyY36F9ZADDcJlO6XSHF5INXlOUfLw/wDBIrGlLujrUborE18NeTBajUdfrCv7yZ02CvKquqtcyWPBnvGpk1cErRXN5MOo6XtGDK1bdgeisTINj/cwPYCKgZE/xbgYEFxHAqKXlaHlaAYRhomIhOgDsJWUGiyq7R0d/Spa8tbp4ipQtZ2tltf2R8rEY1Q578KmBWWOZunSg8goTrwS5/zKgxIDJlytaQbLbW/T+Dj2us9Reeg1FdeO4FAD9ACbwTpXxYCBKKVE66731lF7+Cu/FaZuAxx8AE3DnDE1Mku29eTivB4YbgmT/FNUNwAAwwQQEi0SK48OFIwADwAAw0ICYBgAYiEtMXPA8hut5+Oo7AAaAAWCgATENADAQl5i4fN0FUc9wPSEABoABYKABMQ0AMBCXmLjgeQzX8/DVdwAMAAPAQANiGgBgIC4xcfm6C6Ke4XpCAAwAA8BAA2IaAGACFJc7h8xw72JePZDo1+hFP+yEjbza2sPYqAeYlSltTqsSeOcz2oVyseI/dkxTMGS/pp4nKVTvgEmvR08p4Xfwql+D59NOVJwHgBHzNiTGaylgOOVllALz8iU6U7FDgJngm2FTBaQKIXmgpzKYLGCK8rB0d33qOv2+8nXJASZq6/kdR16bodsN7dd1WAoYvWBp+stTl2g1t5PjBVpduxAEbcUB48jNq9tumP8DMMPst7AA5wUw7uTe7MWEkdVOBjB2IqlsemSktEynGyoJlfY9I/WlSiyV1GN8ZotGqyPZk8mckqnP41iFmo5kSazs+qxzp/s9uT2YKHUCJ3969og2ijxNIynXXXeaT+XBaDbiNprXEmfwi9qu7T8V70llXwfehwZFAKZogNQ+XpR31xR7lMh7a8fYR8lOEJ6KozTvLsPDDnLGgLDjGbOtPTrZVWDj9sTlzAHsOJbCoR1goox8llfnOsb5hU8im+jncbQn1xf1bJ7aM/d9s29QTs4eAMzc4qsn9miA1Y1plACmEEpRrl59oBbk7mVvQfOOCuuLvAqzvnoDsdgeuXNFIHOdgyHqOq4GQvE56rVR1YNXaXsBMB0CxvYwCju3BDDGdEefMmg5fVW97MEcaXl8o+MWYJxlIptUDfKCwammPS67WueOPJhN9z7Yxe3i8wIwqo9DfwVgXAOh0bF6Yue7ty/AmFOcgoEeeTQATOgDcNHb5wUwS65VpIXfF0kN7G4B02RfJKcXYHkRuWmLgmtXUyQrVhMPuCrvqZ7NF33wDuH6/ABmwhvdm8+92O/7NIbMKlJPgGmwL1IdwMSBX8vTieDCq1nuOEjVKkLY3dQAAAMiSURBVJLTW+M6bZjwdGp3j8wVIQR5+xwrvs9dCpj0QbupvucR/2/CJG5UtuE9P5y3nnsuRg3I7l9FAJMOQm15OomJ6FMhHmy5JdaonDl4i8vdtQZgbL98LEaHBHsAWbtUe4xzGIPdLB+DRR3T643PXQUY1kO+feb1qs+jtqWrVnGbq6eA8GB8g0CqvlLASJ2063pFAKOmEnjt4WFKAKbrMdT2fAAMANEDIObzYp1TMPRjkP0IwECYQQpTv2Oq6VQ61dSe49HL4f/5wC1hPwAGgAkeMBLCR53dwAiAAWAAGGhATAMADMQlJi54Cd14CSHbGYABYAAYaEBMAwAMxCUmrpDvrGhbN97VKAAz/cttqvq79r9E/Hfqv/4bf7ABNOBJAwBMAh8ABmDFzcW/BgAYAAZ3a093awAqDygABoABYAAYMQ0AMACMmLhwR8/f0cdmk3qAufWUXv76ih5cqYg81y3X8cpNFuD9B804WfXP/8gFfRGDwWAY2+Dv4npLAbPx/St6mWSPf3BYDJi65fpaGswAE68mffvza3r0V3NlCYABYLoYcGM7RylgdCDcLAFMm3L6d6T/zwPmHc3+BsCMTey43u5vIgAMYjCIwSDIK6YBAAaAERMXPIbuPYbQbD5KwNz6+2tMkXDXBlg70MAoATP9yw/06BdzNQlBXtxtQ7v7L0J7RgkYeDCAySIM3iFcwygB8+3PWEUagjjRxuHfCAAYBHkRi+ggFjFWWJYCJn2Ajh+2M/7Mh+7qlpN+3qWofjwHM/w74VgH6NCvuxQwRQN2aMdNwHCAF0/yDl24aP8wbhojAwx+i4SBOYyBuSj9NDLAmD8P0D0bLFNj4C3KoA7pOgAYBHkR5EWQV0wDAAwAIyaukO6kaEs/HioAA8AAMPBgxDQAwAAwYuKC19CP1xCS3QEYAAaAgQcjpoFRAGZoz+2gvRWpWTtOuYr+aN8fAAzEip0doQExDQAwEJeYuHDnb3/nXxTbATAADAADDYhpAICBuMTEtSh3YVxHe08MgAFgABhoQEwDAAzEJSYu3Pnb3/kXxXYADAADwEADYhr4f3w9ssUA1ay+AAAAAElFTkSuQmCC;" vertex="1" parent="1">
                    <mxGeometry x="230" y="350" width="280" height="273" as="geometry"/>
                </mxCell>
            </root>
        </mxGraphModel>
    </diagram>
</mxfile>